<svg width="1300" height="60" viewBox="0 0 1300 60" fill="none" xmlns="http://www.w3.org/2000/svg">
<rect y="0.000366211" width="1300" height="60" fill="#FF5252"/>
<rect width="117" height="60" transform="translate(40)" fill="#FF5252"/>
<path fill-rule="evenodd" clip-rule="evenodd" d="M72.7957 27.2757C73.5687 26.4387 74.5094 25.9624 75.78 25.9624H76.3385V28.9994C73.3099 28.9994 72.7957 29.0441 72.7957 30.17V33.9625H69.8555V25.9624H72.7957V27.2757ZM94.9494 25.8109C97.3456 25.8109 99.2126 27.1298 99.2126 29.9593C99.2126 32.7889 97.3456 34.1075 94.9494 34.1075C93.4697 34.1075 92.4917 33.388 91.9653 32.718V33.9593H89.0252V24.1667H91.9653V27.2007C92.4917 26.5307 93.4697 25.8109 94.9494 25.8109V25.8109ZM94.1116 31.4851C95.3023 31.4851 96.1109 30.9519 96.1109 29.9593C96.1109 28.9668 95.3023 28.4335 94.1116 28.4335C92.7885 28.4335 91.9652 28.9668 91.9652 29.9593C91.9652 30.9519 92.7885 31.4851 94.1116 31.4851V31.4851ZM105.299 25.6926C108.151 25.6926 110.473 27.0108 110.473 29.9591C110.473 32.9371 108.151 34.1667 105.299 34.1667C102.447 34.1667 100.124 32.9371 100.124 29.9591C100.124 27.0108 102.447 25.6926 105.299 25.6926V25.6926ZM105.299 31.5446C106.49 31.5446 107.298 30.9818 107.298 29.9591C107.298 28.9367 106.49 28.3738 105.299 28.3738C103.976 28.3738 103.153 28.9367 103.153 29.9591C103.153 30.9818 103.976 31.5446 105.299 31.5446V31.5446ZM82.568 25.6926C85.42 25.6926 87.7424 27.0108 87.7424 29.9591C87.7424 32.9371 85.42 34.1667 82.568 34.1667C79.7156 34.1667 77.3932 32.9371 77.3932 29.9591C77.3932 27.0108 79.7156 25.6926 82.568 25.6926V25.6926ZM82.5679 31.5446C83.7586 31.5446 84.5672 30.9818 84.5672 29.9591C84.5672 28.9367 83.7586 28.3738 82.5679 28.3738C81.2446 28.3738 80.4217 28.9367 80.4217 29.9591C80.4217 30.9818 81.2446 31.5446 82.5679 31.5446V31.5446ZM115.707 24.1813V25.9592H118.5V28.6258H115.707V30.4039C115.707 31.3518 117.06 31.1743 118.5 31.0999V33.9595C117.515 34.1073 116.501 34.1073 116.325 34.1073C114.604 34.1073 112.767 33.3369 112.767 30.8481V28.6258H111.15V25.9592H112.767V24.1813H115.707ZM126.894 27.2007V25.9591H129.834V33.9593H126.894V32.718C126.368 33.3877 125.39 34.1075 123.91 34.1075C121.514 34.1075 119.646 32.7889 119.646 29.9593C119.646 27.1298 121.514 25.8109 123.91 25.8109C125.39 25.8109 126.368 26.5307 126.894 27.2007V27.2007ZM124.748 31.4851C126.071 31.4851 126.894 30.9519 126.894 29.9593C126.894 28.9668 126.071 28.4335 124.748 28.4335C123.557 28.4335 122.748 28.9668 122.748 29.9593C122.748 30.9519 123.557 31.4851 124.748 31.4851V31.4851ZM153.973 25.9738H156.913V33.9739H153.973V32.7327C153.446 33.4026 152.468 34.1221 150.988 34.1221C148.592 34.1221 146.725 32.8037 146.725 29.974C146.725 27.1444 148.592 25.8256 150.988 25.8256C152.468 25.8256 153.446 26.5453 153.973 27.2153V25.9738ZM151.826 31.5001C153.15 31.5001 153.973 30.9665 153.973 29.974C153.973 28.9815 153.15 28.4482 151.826 28.4482C150.636 28.4482 149.827 28.9815 149.827 29.974C149.827 30.9665 150.636 31.5001 151.826 31.5001V31.5001ZM132.907 30.8924C134.083 30.8924 134.759 31.6633 134.759 32.5076C134.759 33.3521 134.083 34.0929 132.907 34.0929C131.716 34.0929 131.04 33.3521 131.04 32.5076C131.04 31.6633 131.716 30.8924 132.907 30.8924V30.8924ZM142.359 29.2777V25.9591H145.299V33.9593H142.359V32.7044C141.854 33.371 140.825 34.1075 139.522 34.1075C136.905 34.1075 135.465 32.7596 135.465 30.0185V25.9591H138.405V29.4853C138.405 30.8779 139.154 31.174 140.374 31.174C141.609 31.174 142.359 30.6703 142.359 29.2777V29.2777Z" fill="white"/>
<path fill-rule="evenodd" clip-rule="evenodd" d="M49.9996 27.3135V26H47.0596V34H49.9996V30.2076C49.9996 29.0815 50.5141 29.0372 53.5424 29.0372V26H52.9838C51.7132 26 50.7726 26.4766 49.9996 27.3135" fill="white"/>
<path fill-rule="evenodd" clip-rule="evenodd" d="M40.0872 30.0001C40.0872 24.485 44.5376 20 50.0101 20C55.4824 20 59.9327 24.485 59.9327 30.0001C59.9327 35.5151 55.4824 40 50.0101 40C44.5376 40 40.0872 35.5151 40.0872 30.0001M42.0717 30.0001C42.0717 34.4103 45.6339 38 50.0101 38C54.3862 38 57.9481 34.4103 57.9481 30.0001C57.9481 25.5898 54.3862 22 50.0101 22C45.6339 22 42.0717 25.5898 42.0717 30.0001" fill="white"/>
</svg>
